# Made in Blockbench 5.1.6
mtllib model.mtl

o cylinder
v 0 0 0
v 0 0.5 0
v 0.13397459621556132 0 0.49999999999999994
v 0.13397459621556132 0.5 0.49999999999999994
v 0.3660254037844386 0 0.36602540378443865
v 0.3660254037844386 0.5 0.36602540378443865
v 0.49999999999999994 0 0.13397459621556132
v 0.49999999999999994 0.5 0.13397459621556132
v 0.49999999999999994 0 -0.13397459621556138
v 0.49999999999999994 0.5 -0.13397459621556138
v 0.36602540378443865 0 -0.3660254037844386
v 0.36602540378443865 0.5 -0.3660254037844386
v 0.1339745962155615 0 -0.4999999999999999
v 0.1339745962155615 0.5 -0.4999999999999999
v -0.13397459621556113 0 -0.5
v -0.13397459621556113 0.5 -0.5
v -0.3660254037844386 0 -0.3660254037844387
v -0.3660254037844386 0.5 -0.3660254037844387
v -0.49999999999999994 0 -0.13397459621556126
v -0.49999999999999994 0.5 -0.13397459621556126
v -0.5 0 0.1339745962155611
v -0.5 0.5 0.1339745962155611
v -0.3660254037844387 0 0.36602540378443854
v -0.3660254037844387 0.5 0.36602540378443854
v -0.1339745962155613 0 0.49999999999999994
v -0.1339745962155613 0.5 0.49999999999999994
vt 0.5176375191676121 0.7411812404161939
vt 0.44828802160274145 1
vt 0 0.7411812404161939
vt 0 0.48236180528770867
vt 0.2588184218119073 0.5517125634363665
vt 8.326672684688674e-17 1
vt 0.5176381947122913 0.7411815781880927
vt 0.44828743656363346 1
vt 0 0.7411815781880928
vt 5.551115123125783e-17 0.48236248083238786
vt 0.25881875958380607 0.5517119783972586
vt 0 1
vt 0.5 0.73205
vt 0.5 1
vt 0 0.866025
vt 0.5 0.73205
vt 0.5 1
vt 0 0.866025
vt 5.551115123125783e-17 0.48236248083238786
vt 0.25881875958380607 0.5517119783972586
vt 0 1
vt 0.5176381947122913 0.7411815781880927
vt 0.44828743656363346 1
vt 0 0.7411815781880928
vt 0 0.48236180528770867
vt 0.2588184218119073 0.5517125634363665
vt 8.326672684688674e-17 1
vt 0.5176375191676121 0.7411812404161939
vt 0.44828802160274145 1
vt 0 0.7411812404161939
vt 0 0.5
vt 0.26795 0.5
vt 0.133975 1
vt 0.26795 1
vt 0 1
vt 0.133975 0.5
vt 0 1
vt 0.06934949756487069 0.7411812404161939
vt 0.5176375191676121 1
vt 0.2588184218119073 1
vt 0 0.9306492418513421
vt 0.2588184218119072 0.48236180528770867
vt 0 1
vt 0.06935075814865788 0.7411815781880927
vt 0.5176381947122913 0.9999999999999999
vt 0.258818759583806 1
vt 0 0.9306505024351293
vt 0.25881875958380607 0.48236248083238786
vt 0 1
vt 0 0.73205
vt 0.5 0.866025
vt 0 1
vt 0 0.73205
vt 0.5 0.866025
vt 0.258818759583806 1
vt 0 0.9306505024351293
vt 0.25881875958380607 0.48236248083238786
vt 0 1
vt 0.06935075814865788 0.7411815781880927
vt 0.5176381947122913 0.9999999999999999
vt 0.2588184218119073 1
vt 0 0.9306492418513421
vt 0.2588184218119072 0.48236180528770867
vt 0 1
vt 0.06934949756487069 0.7411812404161939
vt 0.5176375191676121 1
vt 0.26795 1
vt 0 1
vt 0.133975 0.5
vt 0 0.5
vt 0.26795 0.5
vt 0.133975 1
vt 0 0.5
vt 0.26795 0.5
vt 0.26795 1
vt 0.26795 1
vt 0 1
vt 0 0.5
vt 0 0.5
vt 0.26795 0.5
vt 0.26795 1
vt 0.26795 1
vt 0 1
vt 0 0.5
vt 0 0.5
vt 0.26795 0.5
vt 0.26795 1
vt 0.26795 1
vt 0 1
vt 0 0.5
vt 0 0.5
vt 0.26795 0.5
vt 0.26795 1
vt 0.26795 1
vt 0 1
vt 0 0.5
vt 0 0.5
vt 0.26795 0.5
vt 0.26795 1
vt 0.26795 1
vt 0 1
vt 0 0.5
vt 0 0.5
vt 0.26795 0.5
vt 0.26795 1
vt 0.26795 1
vt 0 1
vt 0 0.5
vt 0 0.5
vt 0.26795 0.5
vt 0.26795 1
vt 0.26795 1
vt 0 1
vt 0 0.5
vt 0 0.5
vt 0.26795 0.5
vt 0.26795 1
vt 0.26795 1
vt 0 1
vt 0 0.5
vt 0 0.5
vt 0.26795 0.5
vt 0.26795 1
vt 0.26795 1
vt 0 1
vt 0 0.5
vt 0 0.5
vt 0.26795 0.5
vt 0.26795 1
vt 0.26795 1
vt 0 1
vt 0 0.5
vt 0 0.5
vt 0.26795 0.5
vt 0.26795 1
vt 0.26795 1
vt 0 1
vt 0 0.5
vt 0 0.5
vt 0.26795 0.5
vt 0.26795 1
vt 0.26795 1
vt 0 1
vt 0 0.5
vn 0 -1 0
vn 0 1 0
vn 0 -1 0
vn 0 1 0
vn 0 -1 0
vn 0 1 0
vn 0 -1 0
vn 0 1 0
vn 0 -1 0
vn 0 1 0
vn 0 -1 0
vn 0 1 0
vn 0 -1 0
vn 0 1 0
vn 0 -1 0
vn 0 1 0
vn 0 -1 0
vn 0 1 0
vn 0 -1 0
vn 0 1 0
vn 0 -1 0
vn 0 1 0
vn 0 -1 0
vn 0 1 0
vn 0.5000000000000001 0 -0.8660254037844388
vn 0.5000000000000001 0 -0.8660254037844388
vn 0.8660254037844388 0 -0.5
vn 0.8660254037844388 0 -0.5
vn 1 0 0
vn 1 0 0
vn 0.8660254037844388 0 0.5
vn 0.8660254037844388 0 0.5
vn 0.4999999999999999 0 0.8660254037844388
vn 0.4999999999999999 0 0.8660254037844388
vn 0 0 1
vn 0 0 1
vn -0.4999999999999999 0 0.8660254037844386
vn -0.4999999999999999 0 0.8660254037844386
vn -0.8660254037844389 0 0.4999999999999996
vn -0.8660254037844389 0 0.4999999999999996
vn -1 0 -2.0717043678169412e-16
vn -1 0 -2.0717043678169412e-16
vn -0.8660254037844389 0 -0.4999999999999998
vn -0.8660254037844389 0 -0.4999999999999998
vn -0.4999999999999996 0 -0.8660254037844389
vn -0.4999999999999996 0 -0.8660254037844389
vn 4.143408735633879e-16 0 -1
vn 4.143408735633879e-16 0 -1
usemtl none
f 5/1/1 3/2/1 1/3/1
f 4/4/2 6/5/2 2/6/2
f 7/7/3 5/8/3 1/9/3
f 6/10/4 8/11/4 2/12/4
f 9/13/5 7/14/5 1/15/5
f 8/16/6 10/17/6 2/18/6
f 11/19/7 9/20/7 1/21/7
f 10/22/8 12/23/8 2/24/8
f 13/25/9 11/26/9 1/27/9
f 12/28/10 14/29/10 2/30/10
f 15/31/11 13/32/11 1/33/11
f 14/34/12 16/35/12 2/36/12
f 17/37/13 15/38/13 1/39/13
f 16/40/14 18/41/14 2/42/14
f 19/43/15 17/44/15 1/45/15
f 18/46/16 20/47/16 2/48/16
f 21/49/17 19/50/17 1/51/17
f 20/52/18 22/53/18 2/54/18
f 23/55/19 21/56/19 1/57/19
f 22/58/20 24/59/20 2/60/20
f 25/61/21 23/62/21 1/63/21
f 24/64/22 26/65/22 2/66/22
f 3/67/23 25/68/23 1/69/23
f 26/70/24 4/71/24 2/72/24
f 11/73/25 13/74/25 14/75/25
f 14/76/26 12/77/26 11/78/26
f 9/79/27 11/80/27 12/81/27
f 12/82/28 10/83/28 9/84/28
f 7/85/29 9/86/29 10/87/29
f 10/88/30 8/89/30 7/90/30
f 5/91/31 7/92/31 8/93/31
f 8/94/32 6/95/32 5/96/32
f 3/97/33 5/98/33 6/99/33
f 6/100/34 4/101/34 3/102/34
f 25/103/35 3/104/35 4/105/35
f 4/106/36 26/107/36 25/108/36
f 23/109/37 25/110/37 26/111/37
f 26/112/38 24/113/38 23/114/38
f 21/115/39 23/116/39 24/117/39
f 24/118/40 22/119/40 21/120/40
f 19/121/41 21/122/41 22/123/41
f 22/124/42 20/125/42 19/126/42
f 17/127/43 19/128/43 20/129/43
f 20/130/44 18/131/44 17/132/44
f 15/133/45 17/134/45 18/135/45
f 18/136/46 16/137/46 15/138/46
f 13/139/47 15/140/47 16/141/47
f 16/142/48 14/143/48 13/144/48